<?xml version="1.0" encoding="UTF-8" standalone="no"?>
<svg
   xmlns:dc="http://purl.org/dc/elements/1.1/"
   xmlns:cc="http://creativecommons.org/ns#"
   xmlns:rdf="http://www.w3.org/1999/02/22-rdf-syntax-ns#"
   xmlns:svg="http://www.w3.org/2000/svg"
   xmlns="http://www.w3.org/2000/svg"
   xmlns:sodipodi="http://sodipodi.sourceforge.net/DTD/sodipodi-0.dtd"
   xmlns:inkscape="http://www.inkscape.org/namespaces/inkscape"
   inkscape:version="1.0 (4035a4fb49, 2020-05-01)"
   sodipodi:docname="forca_2.svg"
   viewBox="0 0 301.43005 477.51294"
   height="477.51294"
   width="301.43005"
   id="svg901"
   version="1.1">
  <metadata
     id="metadata907">
    <rdf:RDF>
      <cc:Work
         rdf:about="">
        <dc:format>image/svg+xml</dc:format>
        <dc:type
           rdf:resource="http://purl.org/dc/dcmitype/StillImage" />
        <dc:title></dc:title>
      </cc:Work>
    </rdf:RDF>
  </metadata>
  <defs
     id="defs905">
    <filter
       height="1.1083"
       y="-0.054149983"
       width="1.1345342"
       x="-0.067267108"
       id="filter1130"
       style="color-interpolation-filters:sRGB"
       inkscape:collect="always">
      <feGaussianBlur
         id="feGaussianBlur1132"
         stdDeviation="4.4548049"
         inkscape:collect="always" />
    </filter>
  </defs>
  <sodipodi:namedview
     inkscape:document-rotation="0"
     inkscape:current-layer="svg901"
     inkscape:window-maximized="1"
     inkscape:window-y="20"
     inkscape:window-x="0"
     inkscape:cy="63.193647"
     inkscape:cx="149.79182"
     inkscape:zoom="4.5150608"
     showgrid="false"
     id="namedview903"
     inkscape:window-height="746"
     inkscape:window-width="1364"
     inkscape:pageshadow="2"
     inkscape:pageopacity="1"
     guidetolerance="10"
     gridtolerance="10"
     objecttolerance="10"
     borderopacity="1"
     bordercolor="#666666"
     pagecolor="#000000" />
  <path
     inkscape:connector-curvature="0"
     id="path917"
     d="M 32.556417,8.143314 32.999777,149.448 c 0,0 -20.25355,38.6257 -23.83789,46.64844 -3.5843501,8.02274 4.66668,10.76941 9.6621,7.83594 4.99543,-2.93347 13.36719,-26.18164 13.36719,-26.18164 0,0 0.56939,16.39678 0.47071,22.31836 -0.0987,5.92159 13.77464,8.80434 13.54687,-0.35352 -0.22777,-9.15785 -0.27344,-19.45898 -0.27344,-19.45898 0,0 7.017532,18.79351 10.687502,22.35742 3.66997,3.56391 13.88643,4.0384 11.19727,-6.57813 -2.68917,-10.61653 -21.845702,-45.73046 -21.845702,-45.73047 l 0.23437,-65.61914 c 0,0 44.743072,-42.295661 63.312503,-62.203123 1.07253,-1.149812 2.36532,-1.612288 4.42578,-1.630859 l 50.5625,-0.757812 c 0.80256,-0.0886 1.48927,-0.587646 1.93946,-1.322266 0.85247,-1.982007 0.98066,-5.490379 0.50195,-7.589844 -0.56482,-1.049225 -1.38064,-1.90121 -2.93164,-2.171875 z M 45.845477,19.99097 93.906029,20.323001 46.286887,68.24097 Z"
     style="fill:#f5f5f5;fill-opacity:1;stroke:#f5f5f5;stroke-width:1.00157475;stroke-linecap:round;stroke-linejoin:bevel;stroke-miterlimit:4;stroke-dasharray:none;stroke-opacity:1" />
  <path
     id="path917-3-6"
     d="m 32.563059,8.143513 0.44336,141.304677 c 0,0 -20.25354,38.6257 -23.83789,46.64844 -3.5843501,8.02274 4.66669,10.76941 9.66211,7.83594 4.99542,-2.93347 13.36719,-26.18164 13.36719,-26.18164 0,0 0.56939,16.39678 0.4707,22.31836 -0.0987,5.92159 13.77464,8.80434 13.54687,-0.35352 -0.22776,-9.15785 -0.27343,-19.45898 -0.27343,-19.45898 0,0 7.01752,18.79351 10.6875,22.35742 3.66997,3.56391 13.88643,4.0384 11.19726,-6.57813 -2.68916,-10.61653 -21.8457,-45.73046 -21.8457,-45.73047 l 0.23437,-65.61914 c 0,0 44.74307,-42.295654 63.312481,-62.203116 1.07253,-1.149812 2.36532,-1.612288 4.42578,-1.630859 l 50.5625,-0.757812 c 0.80256,-0.0886 1.48927,-0.587646 1.93946,-1.322266 0.85247,-1.982006 0.98066,-5.490378 0.50195,-7.589843 -0.56482,-1.049224 -1.38064,-1.901209 -2.93164,-2.171874 z m 13.28906,11.847654 48.06055,0.332031 -47.61914,47.917969 z"
     style="fill:#f5f5f5;fill-opacity:1;stroke:#f5f5f5;stroke-width:1.00157475;stroke-linecap:round;stroke-linejoin:bevel;stroke-miterlimit:4;stroke-dasharray:none;stroke-opacity:1;filter:url(#filter1130)"
     inkscape:connector-curvature="0" />
  <path
     id="path920"
     d="M 154.05633,19.839911 153.8083,54.82114"
     style="fill:#9f0000;fill-opacity:1;stroke:#f5f5f5;stroke-width:1px;stroke-linecap:butt;stroke-linejoin:miter;stroke-opacity:1" />
  <ellipse
     ry="12.339849"
     rx="11.762677"
     cy="68.136368"
     cx="153.67719"
     id="path922"
     style="opacity:1;fill:none;fill-opacity:1;stroke:#f5f5f5;stroke-width:6.04724;stroke-linecap:round;stroke-linejoin:bevel;stroke-miterlimit:4;stroke-dasharray:none;stroke-opacity:1" />
  <path
     style="fill:#9f0000;fill-opacity:1;stroke:#f5f5f5;stroke-width:1px;stroke-linecap:butt;stroke-linejoin:miter;stroke-opacity:1"
     d="m 153.86215,81.885806 -0.24803,34.981224"
     id="path920-3" />
</svg>
