<?xml version="1.0" encoding="UTF-8" standalone="no"?>
<!-- Created with Inkscape (http://www.inkscape.org/) -->

<svg
   xmlns:dc="http://purl.org/dc/elements/1.1/"
   xmlns:cc="http://creativecommons.org/ns#"
   xmlns:rdf="http://www.w3.org/1999/02/22-rdf-syntax-ns#"
   xmlns:svg="http://www.w3.org/2000/svg"
   xmlns="http://www.w3.org/2000/svg"
   xmlns:sodipodi="http://sodipodi.sourceforge.net/DTD/sodipodi-0.dtd"
   xmlns:inkscape="http://www.inkscape.org/namespaces/inkscape"
   version="1.1"
   id="svg901"
   width="301.43005"
   height="477.51294"
   viewBox="0 0 301.43005 477.51294"
   sodipodi:docname="forca.svg"
   inkscape:version="0.92.5 (2060ec1f9f, 2020-04-08)">
  <metadata
     id="metadata907">
    <rdf:RDF>
      <cc:Work
         rdf:about="">
        <dc:format>image/svg+xml</dc:format>
        <dc:type
           rdf:resource="http://purl.org/dc/dcmitype/StillImage" />
        <dc:title></dc:title>
      </cc:Work>
    </rdf:RDF>
  </metadata>
  <defs
     id="defs905">
    <filter
       inkscape:collect="always"
       style="color-interpolation-filters:sRGB"
       id="filter1130"
       x="-0.067267108"
       width="1.1345342"
       y="-0.054149983"
       height="1.1083">
      <feGaussianBlur
         inkscape:collect="always"
         stdDeviation="4.4548049"
         id="feGaussianBlur1132" />
    </filter>
  </defs>
  <sodipodi:namedview
     pagecolor="#000000"
     bordercolor="#666666"
     borderopacity="1"
     objecttolerance="10"
     gridtolerance="10"
     guidetolerance="10"
     inkscape:pageopacity="1"
     inkscape:pageshadow="2"
     inkscape:window-width="1364"
     inkscape:window-height="746"
     id="namedview903"
     showgrid="false"
     inkscape:zoom="2.2575304"
     inkscape:cx="148.09148"
     inkscape:cy="337.95312"
     inkscape:window-x="0"
     inkscape:window-y="20"
     inkscape:window-maximized="0"
     inkscape:current-layer="svg901" />
  <path
     style="fill:#f5f5f5;fill-opacity:1;stroke:#f5f5f5;stroke-width:1.00157475;stroke-linecap:round;stroke-linejoin:bevel;stroke-miterlimit:4;stroke-dasharray:none;stroke-opacity:1"
     d="m 82.799238,36.694344 0.44336,141.304686 c 0,0 -20.25355,38.6257 -23.83789,46.64844 -3.58435,8.02274 4.66668,10.76941 9.6621,7.83594 4.99543,-2.93347 13.36719,-26.18164 13.36719,-26.18164 0,0 0.56939,16.39678 0.47071,22.31836 -0.0987,5.92159 13.77464,8.80434 13.54687,-0.35352 -0.22777,-9.15785 -0.27344,-19.45898 -0.27344,-19.45898 0,0 7.017532,18.79351 10.687502,22.35742 3.66997,3.56391 13.88643,4.0384 11.19727,-6.57813 -2.68917,-10.61653 -21.845702,-45.73046 -21.845702,-45.73047 l 0.23437,-65.61914 c 0,0 44.743072,-42.295661 63.312502,-62.203123 1.07253,-1.149812 2.36532,-1.612288 4.42578,-1.630859 l 50.5625,-0.757812 c 0.80256,-0.0886 1.48927,-0.587646 1.93946,-1.322266 0.85247,-1.982007 0.98066,-5.490379 0.50195,-7.589844 -0.56482,-1.049225 -1.38064,-1.90121 -2.93164,-2.171875 z M 96.088298,48.542 144.14885,48.874031 96.529708,96.792 Z"
     id="path917"
     inkscape:connector-curvature="0" />
  <path
     inkscape:connector-curvature="0"
     style="fill:#f5f5f5;fill-opacity:1;stroke:#f5f5f5;stroke-width:1.0015748;stroke-linecap:round;stroke-linejoin:bevel;stroke-miterlimit:4;stroke-dasharray:none;stroke-opacity:1;filter:url(#filter1130)"
     d="m 82.80588,36.694543 0.44336,141.304677 c 0,0 -20.25354,38.6257 -23.83789,46.64844 -3.58435,8.02274 4.66669,10.76941 9.66211,7.83594 4.99542,-2.93347 13.36719,-26.18164 13.36719,-26.18164 0,0 0.56939,16.39678 0.4707,22.31836 -0.0987,5.92159 13.77464,8.80434 13.54687,-0.35352 -0.22776,-9.15785 -0.27343,-19.45898 -0.27343,-19.45898 0,0 7.01752,18.79351 10.6875,22.35742 3.66997,3.56391 13.88643,4.0384 11.19726,-6.57813 -2.68916,-10.61653 -21.8457,-45.73046 -21.8457,-45.73047 l 0.23437,-65.61914 c 0,0 44.74307,-42.295654 63.31248,-62.203116 1.07253,-1.149812 2.36532,-1.612288 4.42578,-1.630859 l 50.5625,-0.757812 c 0.80256,-0.0886 1.48927,-0.587646 1.93946,-1.322266 0.85247,-1.982006 0.98066,-5.490378 0.50195,-7.589843 -0.56482,-1.049224 -1.38064,-1.901209 -2.93164,-2.171874 z m 13.28906,11.847654 48.06055,0.332031 -47.61914,47.917969 z"
     id="path917-3-6" />
</svg>
